<svg xmlns="http://www.w3.org/2000/svg" xml:space="preserve" width="800" height="800" viewBox="0 0 511.975 511.975"><path d="M447.985 410.063c0 11.781-9.562 21.312-21.344 21.312H85.332c-11.789 0-21.335-9.531-21.335-21.312V175.391c0-11.781 9.546-21.328 21.335-21.328h341.309c11.781 0 21.344 9.546 21.344 21.328v234.672z" style="fill:#ffc994"/><path d="M63.998 367.377h383.99v63.998H63.998z" style="fill:#b81414"/><path d="m126.175 367.378-62.178 62.185v1.813H92.34l63.998-63.998zm56.678 63.998 63.998-63.998h-30.172l-63.998 63.998zm90.513 0 63.998-63.998h-30.188l-63.989 63.998zm60.342 0h30.154l63.998-63.998h-30.154z" style="fill:#b81414"/><path d="M88.09 247.138c13.102-4.64 33.812-5.203 47.147-1.25l31.21 9.218c9.281 2.75 25.569 2.75 34.858 0l31.202-9.218c13.172-3.906 33.796-3.906 46.968 0l31.201 9.218c9.281 2.75 25.578 2.75 34.858 0l31.202-9.218c13.344-3.953 34.062-3.39 47.155 1.25l24.093 8.562v-80.31c0-11.781-9.562-21.328-21.344-21.328H85.332c-11.789 0-21.335 9.546-21.335 21.328v80.31l24.093-8.562z" style="fill:#d60015"/><path d="M291.365 156.969c-22.062 17.656-64.389 26.781-79.271 8.172-14.882-18.608 3.32-57.889 25.382-75.544 22.062-17.648 39.64-6.968 54.514 11.64 14.89 18.593 21.436 38.092-.625 55.732z" style="fill:#70000b"/><path d="M305.317 117.892c-4.594 3.672-11.312 2.922-14.983-1.672-3.688-4.593-2.938-11.312 1.656-15 4.608-3.672 11.312-2.922 14.999 1.672a10.662 10.662 0 0 1-1.672 15z" style="fill:#a0d468"/><path d="M291.99 101.221c-4.594 3.688-11.312 2.938-14.983-1.656-3.672-4.609-2.938-11.312 1.672-14.992 4.593-3.679 11.312-2.937 14.983 1.664 3.671 4.594 2.936 11.312-1.672 14.984z" style="fill:#a0d468"/><path d="M508.858 413.188a10.572 10.572 0 0 0-7.531-3.125H10.662a10.58 10.58 0 0 0-7.539 3.125c-4.164 4.156-4.164 10.906 0 15.062a10.594 10.594 0 0 0 7.546 3.125H501.31a10.61 10.61 0 0 0 7.547-3.125c4.157-4.156 4.157-10.906.001-15.062z" style="fill:#434a54"/><path d="M99.113 146.517c-4.164 4.171-4.164 10.921 0 15.093 4.172 4.156 10.921 4.156 15.085 0a10.68 10.68 0 0 0 0-15.093c-4.164-4.156-10.913-4.156-15.085 0zm21.343 42.67c-4.171 4.156-4.171 10.922 0 15.078a10.647 10.647 0 0 0 15.078 0c4.171-4.156 4.171-10.922 0-15.078a10.647 10.647 0 0 0-15.078 0zm63.998 31.999c-4.171 4.156-4.171 10.922 0 15.078 4.164 4.172 10.914 4.172 15.086 0 4.164-4.156 4.164-10.922 0-15.078-4.172-4.172-10.922-4.172-15.086 0zm64.154-31.999c-4.164 4.156-4.164 10.922 0 15.078 4.164 4.172 10.922 4.172 15.086 0 4.164-4.156 4.164-10.922 0-15.078-4.164-4.172-10.922-4.172-15.086 0zm63.85 31.999c-4.172 4.156-4.172 10.922 0 15.078 4.156 4.172 10.906 4.172 15.078 0 4.172-4.156 4.172-10.922 0-15.078-4.172-4.172-10.922-4.172-15.078 0zm63.998-31.999c-4.172 4.156-4.172 10.922 0 15.078 4.156 4.172 10.906 4.172 15.078 0 4.172-4.156 4.172-10.922 0-15.078-4.172-4.172-10.922-4.172-15.078 0zM199.532 161.61a10.68 10.68 0 0 0 0-15.093c-4.164-4.156-10.922-4.156-15.086 0-4.164 4.171-4.164 10.921 0 15.093 4.164 4.156 10.922 4.156 15.086 0zm155.581-15.093c-4.156 4.171-4.156 10.921 0 15.093 4.156 4.156 10.921 4.156 15.093 0 4.156-4.172 4.156-10.921 0-15.093-4.172-4.156-10.937-4.156-15.093 0zm57.748 0c-4.156-4.156-10.905-4.156-15.077 0a10.665 10.665 0 0 0 0 15.093c4.172 4.156 10.921 4.156 15.077 0a10.665 10.665 0 0 0 0-15.093z" style="fill:#70000b"/><path d="M181.329 292.723a10.545 10.545 0 0 0 3.125 7.531 10.628 10.628 0 0 0 15.086 0 10.603 10.603 0 0 0 3.117-7.531V250.06H181.33v42.663h-.001zm-63.998-21.335a10.67 10.67 0 0 0 3.117 7.554c4.172 4.156 10.922 4.156 15.086 0a10.65 10.65 0 0 0 3.125-7.554v-42.656h-21.327v42.656h-.001zm127.996 31.992a10.615 10.615 0 0 0 3.125 7.562c4.164 4.156 10.914 4.156 15.086 0a10.675 10.675 0 0 0 3.117-7.562v-70.819h-21.328v70.819zm64.006-21.313c0 2.719 1.031 5.438 3.125 7.531 4.156 4.156 10.906 4.156 15.078 0a10.649 10.649 0 0 0 3.109-7.531v-30.835h-21.312v30.835zm85.31-44.834h-21.312v34.156c0 2.742 1.031 5.46 3.125 7.554 4.156 4.156 10.906 4.156 15.062 0a10.612 10.612 0 0 0 3.125-7.554v-34.156z" style="fill:#d60015"/></svg>