<svg xmlns="http://www.w3.org/2000/svg" width="800" height="800" class="icon" viewBox="0 0 1024 1024"><path fill="#FFD54F" d="M426.667 128 128 896l768-298.667z"/><path fill="#FF3D00" d="M320.021 682.667a106.667 106.667 0 0 0-106.688 106.645c0 24.47 8.576 46.763 22.464 64.768l189.952-73.877c-4.693-54.55-49.962-97.536-105.728-97.536zm21.334-288a96 96 0 1 0 192 0 96 96 0 1 0-192 0Z"/><path fill="#3E2723" d="M597.333 426.667c-35.306 0-64 28.693-64 64.042 0 35.286 28.694 63.958 64 63.958s64-28.672 64-63.958a64.064 64.064 0 0 0-64-64.042zm0 96a32 32 0 1 1-.021-63.979 32 32 0 0 1 .021 63.979zm-256 10.666c-35.306 0-64 28.694-64 64.043 0 35.285 28.694 63.957 64 63.957s64-28.672 64-63.957a64.064 64.064 0 0 0-64-64.043zm0 96a32 32 0 1 1-.021-63.978 32 32 0 0 1 .021 63.978z"/><path fill="#8D6E63" d="M637.27 693.803a42.667 42.667 0 0 0-54.934-24.96c-22.059 8.277-133.12 70.314-124.864 92.373.725 1.963 2.667 3.413 5.077 4.672l175.68-68.33c-.32-1.238-.49-2.518-.96-3.755z"/><path fill="#8D6E63" d="M537.365 731.264c-10.368-32.427-6.549-61.717-6.549-61.717.704-.918.725-2.006.64-3.115a20.587 20.587 0 0 0-.341-12.608 21.333 21.333 0 0 0-34.752-7.85 96.512 96.512 0 0 0-38.87 115.242c.726 1.963 1.814 3.67 2.667 5.568l79.04-30.72c-.576-1.6-1.28-3.115-1.835-4.8z"/><path fill="#689F38" d="M554.667 610.027s-11.435-114.603-128-73.451c12.565 119.232 128 73.45 128 73.45zm162.026-76.694s-114.624 11.414-73.45 128c119.232-12.586 73.45-128 73.45-128z"/><path fill="#FF9800" d="M892.97 580.01c-19.775-46.485-65.642-182.207-166.1-282.645-97.73-97.792-227.01-151.552-284.396-167.125-17.899-4.821-21.867-5.803-28.886 12.01-5.717 14.422-21.973 63.723-29.994 86.806a58.027 58.027 0 0 0-2.582 10.027 705.963 705.963 0 0 1 404.288 404.8c.534-.128 1.003-.022 1.579-.214 14.827-4.714 74.048-25.386 89.77-30.634 15.723-5.334 24.278-14.358 16.32-33.024z"/></svg>