<svg xmlns="http://www.w3.org/2000/svg" xml:space="preserve" width="800" height="800" viewBox="0 0 511.985 511.985"><path d="M511.985 213.326c0-94.263-90.716-170.667-202.65-170.667-55.748 0-106.247 18.968-142.886 49.639l-.016.031c-8.406 7.031-16.093 14.688-22.937 22.875l-84.81 84.685 48.686 27.749c5.656 57.318 44.952 106.599 101.216 133.785v107.904l154.073-29.844 102.623-102.402h-.016c30.248-30.125 46.717-81.444 46.717-123.755z" style="fill:#ff8591"/><path d="M464.331 338.018c5.594-19.812 8.53-40.125 8.53-59.5 0-26.553-6.187-52.318-18.343-76.536-11.688-23.265-28.375-44.124-49.592-61.982-43.281-36.452-100.701-56.514-161.699-56.514-27.265 0-59.202 8.39-85.138 16.249-6.968 6.156-8.75 8.5-14.593 15.469l-18.968 18.952c35.843-19.015 77.248-29.343 118.7-29.343 114.856 0 208.291 77.935 208.291 173.705 0 34.156-10.219 70.779-26.719 98.967l39.531-39.467z" style="fill:#850000"/><path d="M202.666 149.328C90.748 149.328 0 225.732 0 319.987c0 28.029 8.046 54.498 22.281 77.842C9.157 403.61.001 416.733.001 431.983c0 20.625 16.718 37.344 37.343 37.344h263.492c66.467 0 104.498-85.092 104.498-149.34-.001-94.255-90.749-170.659-202.668-170.659z" style="fill:#fff"/><path d="M305.147 235.732c-28.623-21.015-65.966-33.077-102.481-33.077-35.749 0-73.216 13.515-102.793 37.046-13.843 11.031-25.39 23.906-33.39 37.224-8.578 14.312-13.109 29.25-13.109 43.188 0 12.406 3.593 22.248 10.687 29.311 13.5 13.438 36.14 13.344 57.998 13.219h112.607c20.89 0 40.625-1 52.545-13.312 6.844-7.062 10.124-17.061 9.718-29.686-.812-25.156-21.154-46.529-54.435-57.193-20.937-6.704-44.186-8.125-65.436-3.984-24.031 4.672-43.655 16.055-56.874 32.865-3.937 4.188-3.89 10.781.203 14.875 4.172 4.156 10.922 4.156 15.078 0 .359-.375.671-.75.968-1.125l.047.031c16.546-21.656 56.014-36.271 99.513-22.344 28.625 9.188 39.218 25.406 39.609 37.562.328 10-2.703 13.125-3.703 14.156-6.125 6.311-22.422 6.842-37.234 6.842h-30.546c-24.171-.031-56.311-.031-76.123-.031-2 0-4.031 0-6.031.031-17.531.094-35.624.156-42.874-7.029-2.953-2.938-4.406-7.594-4.406-14.188 0-20.719 14.39-44.529 38.468-63.709 25.874-20.608 58.498-32.421 89.513-32.421 32.077 0 64.827 10.547 89.857 28.937 24.249 17.813 38.155 40.788 38.155 63.069 0 22.75-6.391 43.498-18.016 58.467-9.984 12.844-22.858 20.188-35.326 20.188H20.391a112.326 112.326 0 0 0 1.891 3.188 37.61 37.61 0 0 0-18.687 18.154h273.742c19.092 0 38.107-10.373 52.17-28.436 14.515-18.688 22.515-44.094 22.515-71.561-.001-29.158-17.078-58.398-46.875-80.257z" style="fill:#ed5564"/></svg>