<svg xmlns="http://www.w3.org/2000/svg" xml:space="preserve" width="800" height="800" viewBox="0 0 512 512"><path d="M129.995 220.796c1.675.287 3.436.227 5.185-.236 6.519-1.727 10.404-8.412 8.675-14.931L106.547 64.863a12.206 12.206 0 0 0-6.286-7.765L40.985 27.084c-6.019-3.048-13.364-.639-16.411 5.378-3.046 6.017-.638 13.364 5.378 16.41l54.391 27.54 35.905 135.474c1.264 4.768 5.183 8.128 9.747 8.91z" style="fill:#ffe477"/><path d="m120.299 116.755 23.554 88.875c1.728 6.519-2.156 13.204-8.674 14.931-1.749.463-3.51.523-5.185.236-4.564-.783-8.483-4.142-9.746-8.911L98.137 128.46c.001.001 5.369-9.375 22.162-11.705z" style="fill:#ffd422"/><path d="m214.069 207.428 1.354-30.11c1.028-22.864-17.684-23.11-17.684-23.11h-169s-18.711.245-17.684 23.11l12.767 283.944c.003.083.933 23.293 22.252 23.293h134.33c21.319 0 22.249-23.21 22.252-23.293l9.647-214.549" style="fill:#d1e7f8"/><path d="M55.356 461.261 42.59 177.318c-1.028-22.864 17.684-23.11 17.684-23.11H28.739s-18.711.245-17.684 23.11l12.767 283.944c.003.083.933 23.293 22.252 23.293h31.534c-21.319-.001-22.248-23.211-22.252-23.294z" style="fill:#b9d8f4"/><path d="M49.321 445.341s.605 14.066 12.255 14.066h105.76c11.649 0 12.255-14.066 12.255-14.066l10.221-229.666c.7-15.57-13.542-15.665-13.542-15.665H52.642s-14.242.095-13.542 15.665l10.221 229.666z" style="fill:#ffe477"/><path d="M91.78 414.1c-11.649 0-12.255-14.066-12.255-14.066L70.623 200.01H52.642s-14.242.095-13.542 15.665l10.221 229.666s.605 14.066 12.255 14.066h105.76c11.649 0 12.255-14.066 12.255-14.066l1.39-31.241H91.78z" style="fill:#ffd422"/><circle cx="108.89" cy="264.022" r="6.285" style="fill:#ffd422"/><circle cx="91.396" cy="234.854" r="6.983" style="fill:#ffd422"/><circle cx="142.1" cy="228.16" r="6.285" style="fill:#ffd422"/><circle cx="160.962" cy="253.338" r="6.983" style="fill:#ffd422"/><circle cx="132.237" cy="407.953" r="29.264" style="fill:#ffa733"/><circle cx="101.396" cy="356.745" r="34.705" style="fill:#ffa733"/><path d="M364.697 211.579a12.17 12.17 0 0 1-5.07-1.109c-6.133-2.805-8.832-10.05-6.026-16.183l60.565-132.435a12.211 12.211 0 0 1 7.508-6.591L485.169 35.7c6.448-1.987 13.28 1.629 15.266 8.074 1.985 6.445-1.63 13.28-8.074 15.265l-58.263 17.95-58.289 127.455c-2.052 4.486-6.482 7.135-11.112 7.135z" style="fill:#ffe477"/><path d="M391.839 110.673 353.6 194.286c-2.806 6.133-.107 13.378 6.026 16.183a12.157 12.157 0 0 0 5.07 1.109c4.63 0 9.061-2.648 11.111-7.136l35.893-78.487c.002.002-3.704-10.147-19.861-15.282z" style="fill:#ffd422"/><path d="m472.836 207.428 1.354-30.11c1.028-22.864-17.684-23.11-17.684-23.11h-169s-18.711.245-17.684 23.11l12.767 283.944c.003.083.933 23.293 22.252 23.293h134.33c21.319 0 22.249-23.21 22.252-23.293l9.647-214.549" style="fill:#d1e7f8"/><path d="m314.124 461.261-12.767-283.943c-1.028-22.864 17.684-23.11 17.684-23.11h-31.534s-18.711.245-17.684 23.11l12.767 283.944c.003.083.933 23.293 22.252 23.293h31.534c-21.32-.001-22.249-23.211-22.252-23.294z" style="fill:#b9d8f4"/><path d="M308.088 445.341s.605 14.066 12.255 14.066h105.76c11.649 0 12.255-14.066 12.255-14.066l10.221-229.666c.7-15.57-13.542-15.665-13.542-15.665H311.409s-14.242.095-13.542 15.665l10.221 229.666z" style="fill:#a4e276"/><path d="M350.548 414.1c-11.649 0-12.255-14.066-12.255-14.066l-8.902-200.024H311.41s-14.242.095-13.542 15.665l10.221 229.666s.605 14.066 12.255 14.066h105.76c11.649 0 12.255-14.066 12.255-14.066l1.391-31.241h-89.202z" style="fill:#7ed63e"/><circle cx="369.365" cy="246.338" r="6.285" style="fill:#7ed63e"/><circle cx="394.753" cy="269.169" r="6.983" style="fill:#7ed63e"/><circle cx="400.858" cy="228.16" r="6.285" style="fill:#7ed63e"/><circle cx="419.731" cy="253.338" r="6.983" style="fill:#7ed63e"/><circle cx="387.838" cy="407.953" r="29.264" style="fill:#5eac24"/><circle cx="353.576" cy="368.849" r="34.705" style="fill:#5eac24"/><path d="M246.14 202.695c-1.876 0-3.782-.394-5.599-1.224-6.772-3.097-9.752-11.096-6.653-17.869l66.874-146.23a13.482 13.482 0 0 1 8.291-7.278l70.11-21.599c7.12-2.194 14.663 1.799 16.855 8.915 2.191 7.117-1.8 14.663-8.915 16.854l-64.332 19.819-64.361 140.733c-2.265 4.954-7.158 7.879-12.27 7.879z" style="fill:#ffe477"/><path d="m276.109 91.277-42.222 92.325c-3.098 6.772-.118 14.772 6.653 17.869a13.417 13.417 0 0 0 5.599 1.224c5.112 0 10.005-2.924 12.269-7.879l39.633-86.662c.001 0-4.091-11.207-21.932-16.877z" style="fill:#ffd422"/><path d="m352.825 198.111 1.495-33.247c1.136-25.246-19.526-25.517-19.526-25.517H148.189s-20.66.271-19.526 25.517l14.097 313.523c.003.092 1.029 25.719 24.57 25.719h148.323c23.54 0 24.566-25.628 24.57-25.719l10.652-236.9" style="fill:#d1e7f8"/><path d="m177.58 478.387-14.097-313.523c-1.136-25.246 19.526-25.517 19.526-25.517H148.19s-20.66.271-19.526 25.517l14.097 313.523c.003.092 1.029 25.719 24.57 25.719h34.819c-23.54.001-24.566-25.627-24.57-25.719z" style="fill:#b9d8f4"/><path d="M170.915 460.809s.668 15.531 13.532 15.531h116.778c12.863 0 13.532-15.531 13.532-15.531l11.285-253.592c.773-17.192-14.952-17.296-14.952-17.296H174.583s-15.725.104-14.952 17.296l11.284 253.592z" style="fill:#ff3f62"/><path d="M217.798 426.314c-12.863 0-13.532-15.531-13.532-15.531l-9.829-220.861h-19.854s-15.725.104-14.952 17.296l11.285 253.592s.668 15.531 13.532 15.531h116.778c12.863 0 13.532-15.531 13.532-15.531l1.536-34.496h-98.496z" style="fill:#ff0c38"/><circle cx="222.128" cy="229.518" r="6.94" style="fill:#ff0c38"/><circle cx="264.927" cy="230.118" r="7.711" style="fill:#ff0c38"/><circle cx="242.97" cy="258.548" r="6.94" style="fill:#ff0c38"/><circle cx="294.189" cy="248.801" r="7.711" style="fill:#ff0c38"/><circle cx="241.075" cy="396.269" r="49.051" style="fill:#d80027"/><circle cx="262.021" cy="325.262" r="38.321" style="fill:#d80027"/><path d="M507.978 41.45a19.973 19.973 0 0 0-9.811-11.852 19.969 19.969 0 0 0-15.322-1.442l-63.496 19.561c-5.476 1.687-9.982 5.642-12.403 10.939l-38.812 87.657h-9.509a27.167 27.167 0 0 0-4.365-6.169c-7.836-8.304-18.204-8.677-19.464-8.692h-38.728l32.409-70.867 60.949-18.777c11.264-3.47 17.607-15.458 14.136-26.724C400.091 3.819 388.102-2.52 376.838.949l-11.089 3.417a7.895 7.895 0 0 0 4.648 15.089l11.09-3.417a5.594 5.594 0 0 1 6.986 3.695 5.596 5.596 0 0 1-3.696 6.986l-64.332 19.82a7.893 7.893 0 0 0-4.855 4.261l-36.885 80.652h-130.62c-.965.013-8.348.293-15.319 5.209l-18.588-73.818a20.122 20.122 0 0 0-10.351-12.789L44.553 20.041a19.978 19.978 0 0 0-15.346-1.169 19.975 19.975 0 0 0-11.675 10.025 19.97 19.97 0 0 0-1.167 15.343 19.97 19.97 0 0 0 10.023 11.675l51.107 25.877 15.066 64.522H28.635c-1.079.015-10.76.362-18.065 8.105-5.35 5.669-7.84 13.493-7.401 23.253l12.766 283.94c.471 10.666 7.376 30.837 30.138 30.837h91.949c4.376 10.2 13.564 19.552 29.307 19.552h148.323c15.758 0 24.95-9.369 29.319-19.552h94.199c21.274 0 29.68-18.476 30.138-30.833l9.647-214.549a7.895 7.895 0 0 0-7.531-8.242 7.891 7.891 0 0 0-8.241 7.532l-9.647 214.551c-.136 2.63-1.467 15.75-14.365 15.75h-90.968l.421-9.358h77.479c14.095 0 19.768-12.93 20.141-21.61l10.221-229.663c.396-8.795-2.9-14.199-5.735-17.185-6.154-6.48-14.687-6.723-15.692-6.729H361l1.209-26.898c.047-1.062.055-2.097.039-3.116h94.157c.039 0 4.08.282 6.788 3.154 2.304 2.441 3.351 6.381 3.111 11.708l-1.354 30.11a7.894 7.894 0 1 0 15.772.709l1.354-30.109c.44-9.761-2.05-17.585-7.4-23.254-7.305-7.743-16.986-8.091-18.169-8.106h-71.106l35.944-81.178a4.312 4.312 0 0 1 2.654-2.328l63.497-19.561a4.294 4.294 0 0 1 3.288.308 4.29 4.29 0 0 1 2.107 2.545 4.284 4.284 0 0 1-.311 3.288 4.285 4.285 0 0 1-2.544 2.107l-58.264 17.95a7.89 7.89 0 0 0-4.869 4.291l-25.194 55.714a7.895 7.895 0 0 0 14.387 6.505l23.727-52.47 54.86-16.901a19.97 19.97 0 0 0 11.852-9.813 19.955 19.955 0 0 0 1.443-15.318zM387.185 395.03a42.543 42.543 0 0 0 4.961-8.107c.034.007.066.019.1.026a21.132 21.132 0 0 1 9.085 4.31 21.235 21.235 0 0 1 7.818 14.366 21.23 21.23 0 0 1-4.632 15.687 21.226 21.226 0 0 1-14.366 7.817c-5.677.604-11.246-1.043-15.686-4.631a21.336 21.336 0 0 1-7.611-12.908 7.967 7.967 0 0 0-.683-2.093c8.175-2.538 15.582-7.494 21.014-14.467zm-12.455-9.703c-5.478 7.028-14.131 10.812-22.882 10.268l2.408-53.553c5.71.133 11.21 2.081 15.8 5.657 11.662 9.086 13.759 25.965 4.674 37.628zm-244.041.327 1.978 43.991c-11.853-.386-21.382-10.124-21.382-22.069 0-11.272 8.487-20.583 19.404-21.922zM92.031 74.616a7.89 7.89 0 0 0-4.122-5.247L33.518 41.828a4.28 4.28 0 0 1-2.151-2.505 4.283 4.283 0 0 1 .251-3.294 4.294 4.294 0 0 1 2.506-2.154 4.302 4.302 0 0 1 3.296.252l59.274 30.014c1.097.556 1.907 1.556 2.197 2.65l20.023 79.523h-10.141L92.031 74.616zm-60.322 386.29L18.942 176.963c-.579-12.883 6.704-14.692 9.948-14.861h91.849a51.834 51.834 0 0 0 .039 3.116l1.209 26.898H52.59c-.953.006-9.486.249-15.64 6.73-2.835 2.984-6.13 8.388-5.731 17.243l7.219 137.688a7.892 7.892 0 0 0 8.295 7.47 7.893 7.893 0 0 0 7.47-8.297l-7.216-137.629c-.115-2.57.343-4.438 1.362-5.549 1.461-1.594 4.092-1.84 4.437-1.865h69.912l5.203 115.723c-16.382-12.551-39.979-11.648-55.342 3.053a42.914 42.914 0 0 0-3.399 3.652 7.893 7.893 0 0 0 1.054 11.114 7.895 7.895 0 0 0 11.115-1.053 26.766 26.766 0 0 1 2.145-2.304c10.68-10.222 27.686-9.847 37.907.835 7.144 7.465 9.361 18.13 5.786 27.833a7.849 7.849 0 0 0-.439 3.525c-9.344 1.665-17.509 6.762-23.145 13.942a26.77 26.77 0 0 1-20.942-8.226 26.787 26.787 0 0 1-7.411-17.279c-.202-4.356-3.912-7.75-8.252-7.52a7.895 7.895 0 0 0-7.521 8.251 42.589 42.589 0 0 0 11.775 27.463 42.513 42.513 0 0 0 25.101 12.757 37.88 37.88 0 0 0-.836 7.907c0 20.891 16.993 37.887 37.883 37.893l.272 6.043H61.576c-3.729 0-4.29-5.36-4.368-6.543l-2.162-59.623c-.158-4.358-3.868-7.774-8.175-7.603a7.894 7.894 0 0 0-7.604 8.175l2.167 59.761c.374 8.69 6.047 21.621 20.142 21.621h72.785l.421 9.358H46.074c-12.901-.003-14.229-13.128-14.365-15.756zM329.526 488.1c-2.886 5.535-7.294 8.112-13.873 8.112H167.33c-6.579 0-10.987-2.578-13.873-8.112-2.521-4.836-2.807-10.006-2.81-10.067L136.549 164.51c-.272-6.035.925-10.548 3.555-13.417 3.126-3.408 7.71-3.815 8.243-3.85h186.278c.478.031 5.106.418 8.253 3.851 2.63 2.869 3.827 7.383 3.556 13.417l-14.099 313.533c-.001.05-.288 5.22-2.809 10.056zm105.46-280.195c.025 0 2.771.207 4.296 1.814 1.054 1.109 1.528 2.994 1.412 5.606l-10.219 229.607c-.067 1.099-.599 6.582-4.37 6.582h-76.77l1.805-40.136c.069.004.138.004.207.007a7.853 7.853 0 0 0-.044 2.939 37.142 37.142 0 0 0 13.236 22.454c6.677 5.397 14.824 8.266 23.289 8.266 1.323 0 2.654-.07 3.987-.212 9.87-1.046 18.742-5.873 24.981-13.593 6.24-7.719 9.101-17.406 8.053-27.276-1.046-9.87-5.873-18.742-13.592-24.981a37.269 37.269 0 0 0-15.186-7.343c.872-13.605-4.77-27.401-16.312-36.393-7.21-5.617-15.831-8.701-24.795-8.973l5.323-118.365h74.698v-.003z"/><path d="M311.09 182.026H174.53c-1.017.006-10.118.265-16.679 7.174-3.02 3.18-6.53 8.948-6.104 18.43l7.97 152.031c.227 4.355 3.944 7.69 8.297 7.47a7.893 7.893 0 0 0 7.47-8.297l-7.967-151.972c-.138-3.07.443-5.333 1.727-6.729 1.856-2.017 5.105-2.294 5.471-2.319h136.322c.032 0 3.402.223 5.335 2.259 1.323 1.393 1.923 3.678 1.783 6.792l-11.284 253.541c-.08 1.342-.73 8.039-5.647 8.039H184.446c-4.871 0-5.555-6.576-5.645-8.002l-2.387-65.848a7.895 7.895 0 0 0-15.779.571l2.391 65.983c.4 9.28 6.433 23.085 21.419 23.085h116.778c14.986 0 21.02-13.806 21.418-23.074l11.286-253.589c.423-9.423-3.087-15.191-6.107-18.371-6.56-6.908-15.661-7.167-16.73-7.174zm28.561-153.464c.769 0 1.554-.114 2.327-.352l7.346-2.263a7.895 7.895 0 0 0 5.221-9.868 7.895 7.895 0 0 0-9.869-5.22l-7.346 2.263a7.895 7.895 0 0 0 2.321 15.44zm-78.748 95.966a7.874 7.874 0 0 0 3.278.717 7.895 7.895 0 0 0 7.184-4.614l36.578-79.98a5.591 5.591 0 0 1 3.435-3.015l8.455-2.605a7.895 7.895 0 0 0-4.648-15.089l-8.455 2.605a21.387 21.387 0 0 0-13.145 11.539l-36.577 79.978a7.893 7.893 0 0 0 3.895 10.464z"/><path d="M184.124 396.273c0 31.4 25.545 56.945 56.945 56.945s56.946-25.545 56.946-56.945c0-12.121-3.818-23.359-10.299-32.603 12.666-8.485 20.516-22.837 20.516-38.411 0-25.483-20.732-46.215-46.215-46.215-1.8 0-3.616.105-5.398.313a7.894 7.894 0 0 0 1.825 15.682 31.042 31.042 0 0 1 3.572-.206c16.776 0 30.426 13.649 30.426 30.426 0 11.139-6.103 21.322-15.739 26.642-9.764-7.858-22.156-12.574-35.636-12.574-1.979 0-3.935.102-5.862.301a30.401 30.401 0 0 1 3.863-34.351 7.896 7.896 0 0 0-11.902-10.376 46.187 46.187 0 0 0-11.368 30.357 46.244 46.244 0 0 0 3.778 18.292c-20.771 8.5-35.452 28.925-35.452 52.723zm56.946-41.157c22.695 0 41.157 18.462 41.157 41.156s-18.462 41.156-41.157 41.156c-22.694 0-41.156-18.462-41.156-41.156-.001-22.693 18.462-41.156 41.156-41.156z"/></svg>