<svg xmlns="http://www.w3.org/2000/svg" width="800" height="800" class="icon" viewBox="0 0 1024 1024"><path fill="#434854" d="M640.132 0h-224a128 128 0 0 0-128 128v128a128 128 0 0 0 128 128h224a128 128 0 0 0 128-128V128a128 128 0 0 0-128-128zm96 240a112 112 0 0 1-112 112h-192a112 112 0 0 1-112-112v-96a112 112 0 0 1 112-112h192a112 112 0 0 1 112 112v96z"/><path fill="#EAEAEA" d="M736.132 240a112 112 0 0 1-112 112h-192a112 112 0 0 1-112-112v-96a112 112 0 0 1 112-112h192a112 112 0 0 1 112 112v96z"/><path fill="#434854" d="M761.252 295.488c-.704 2.24-1.216 4.576-2.048 6.752-2.592 6.592-5.824 12.8-9.408 18.848-.16.288-.288.576-.48.832A127.424 127.424 0 0 1 640.132 384h-224a127.488 127.488 0 0 1-109.184-62.048l-.448-.8a128.32 128.32 0 0 1-9.44-18.88c-.832-2.208-1.344-4.544-2.08-6.784-1.632-5.024-3.392-9.952-4.416-15.2A123.552 123.552 0 0 1 288.132 256v224a128 128 0 0 0 128 128h224a128 128 0 0 0 128-128V256c0 8.352-.864 16.448-2.432 24.32-1.024 5.248-2.784 10.176-4.448 15.168z"/><path d="M761.252 295.488c-.704 2.24-1.216 4.576-2.048 6.752-2.592 6.592-5.824 12.8-9.408 18.848-.16.288-.288.576-.48.832A127.424 127.424 0 0 1 640.132 384h-224a127.488 127.488 0 0 1-109.184-62.048l-.448-.8a128.32 128.32 0 0 1-9.44-18.88c-.832-2.208-1.344-4.544-2.08-6.784-1.632-5.024-3.392-9.952-4.416-15.2A123.552 123.552 0 0 1 288.132 256v224a128 128 0 0 0 128 128h224a128 128 0 0 0 128-128V256c0 8.352-.864 16.448-2.432 24.32-1.024 5.248-2.784 10.176-4.448 15.168z"/><path fill="#FFF" d="M704.132 590.24V366.592c-9.888 5.824-20.64 10.24-32 13.216v223.648a125.024 125.024 0 0 0 32-13.216z"/><path fill="#EF4D4D" d="M384.132 192a144 96 0 1 0 288 0 144 96 0 1 0-288 0Z"/><path fill="#434854" d="M352.004 416h-224a128 128 0 0 0-128 128v128a128 128 0 0 0 128 128h224a128 128 0 0 0 128-128V544a128 128 0 0 0-128-128zm96 240a112 112 0 0 1-112 112h-192a112 112 0 0 1-112-112v-96a112 112 0 0 1 112-112h192a112 112 0 0 1 112 112v96z"/><path fill="#EAEAEA" d="M448.004 656a112 112 0 0 1-112 112h-192a112 112 0 0 1-112-112v-96a112 112 0 0 1 112-112h192a112 112 0 0 1 112 112v96z"/><path fill="#434854" d="M473.124 711.488c-.704 2.24-1.216 4.576-2.048 6.752-2.592 6.592-5.824 12.8-9.408 18.848-.16.288-.288.576-.48.832A127.424 127.424 0 0 1 352.004 800h-224A127.488 127.488 0 0 1 18.82 737.952l-.448-.8a128.32 128.32 0 0 1-9.44-18.88c-.832-2.176-1.344-4.544-2.08-6.752-1.632-5.024-3.36-9.984-4.416-15.232A123.552 123.552 0 0 1 .004 672v224a128 128 0 0 0 128 128h224a128 128 0 0 0 128-128V672c0 8.352-.864 16.448-2.432 24.32-1.024 5.248-2.784 10.176-4.448 15.168z"/><path d="M473.124 711.488c-.704 2.24-1.216 4.576-2.048 6.752-2.592 6.592-5.824 12.8-9.408 18.848-.16.288-.288.576-.48.832A127.424 127.424 0 0 1 352.004 800h-224A127.488 127.488 0 0 1 18.82 737.952l-.448-.8a128.32 128.32 0 0 1-9.44-18.88c-.832-2.176-1.344-4.544-2.08-6.752-1.632-5.024-3.36-9.984-4.416-15.232A123.552 123.552 0 0 1 .004 672v224a128 128 0 0 0 128 128h224a128 128 0 0 0 128-128V672c0 8.352-.864 16.448-2.432 24.32-1.024 5.248-2.784 10.176-4.448 15.168z"/><path fill="#FFF" d="M416.004 1006.24V782.592c-9.888 5.824-20.64 10.24-32 13.216v223.648a125.024 125.024 0 0 0 32-13.216z"/><path fill="#EF4D4D" d="M96.004 608a144 96 0 1 0 288 0 144 96 0 1 0-288 0Z"/><path fill="#EAEAEA" d="M832.004 768v224a32 32 0 1 0 64 0V768h-64z"/><path fill="#EACA44" d="M896.004 768V32a32 32 0 1 0-64 0v736h64z"/><path d="M864.004 0v1024a32 32 0 0 0 32-32V32a32 32 0 0 0-32-32z"/><path fill="#EAEAEA" d="M960.004 768v224a32 32 0 1 0 64 0V768h-64z"/><path fill="#EACA44" d="M1024.004 768V32a32 32 0 1 0-64 0v736h64z"/><path d="M992.004 0v1024a32 32 0 0 0 32-32V32a32 32 0 0 0-32-32z"/></svg>