<svg width="83" height="64" viewBox="0 0 83 64" fill="none" xmlns="http://www.w3.org/2000/svg">
<path d="M30.764 8.78023C31.097 8.78032 31.4299 8.78027 31.7629 8.78008C32.6614 8.77998 33.5598 8.78195 34.4583 8.7843C35.3992 8.78641 36.3402 8.7866 37.2812 8.787C39.0606 8.78804 40.84 8.79079 42.6195 8.79417C44.6463 8.79793 46.6731 8.79978 48.7 8.80146C52.8671 8.80497 57.0343 8.81087 61.2014 8.81837C60.9429 9.3415 60.6638 9.8443 60.3667 10.3467C60.2708 10.509 60.1748 10.6713 60.076 10.8385C59.9762 11.0069 59.8763 11.1752 59.7735 11.3487C59.6737 11.5177 59.5738 11.6867 59.471 11.8609C58.7269 13.118 58.7269 13.118 58.3456 13.69C57.9254 13.7398 57.5467 13.7562 57.1261 13.7514C56.999 13.7519 56.8718 13.7524 56.7409 13.753C56.3124 13.7541 55.8841 13.7517 55.4557 13.7494C55.1494 13.7495 54.8432 13.7499 54.5369 13.7505C53.8759 13.7513 53.2149 13.7506 52.5539 13.7488C51.5075 13.746 50.4612 13.7474 49.4148 13.7496C46.6262 13.7546 43.8376 13.7544 41.049 13.7512C39.219 13.7491 37.389 13.7495 35.559 13.7543C34.5202 13.7569 33.4815 13.7556 32.4427 13.7515C31.7938 13.7498 31.1449 13.7516 30.4959 13.7544C30.1966 13.755 29.8973 13.7541 29.598 13.7517C27.8538 13.7385 26.4904 13.8526 24.9157 14.698C24.7286 14.7915 24.5415 14.8851 24.3488 14.9815C23.5624 15.6742 23.0106 16.4836 22.8073 17.523C22.7448 18.8081 23.1464 19.5522 23.9629 20.5008C25.6587 22.1654 28.3667 22.9144 30.5749 23.6224C30.8415 23.7095 31.1081 23.7968 31.3746 23.8842C33.0628 24.4344 34.7584 24.9533 36.4722 25.4184C37.8179 25.7895 39.1003 26.2714 40.3812 26.8247C40.5345 26.8908 40.6878 26.9569 40.8457 27.0251C45.3729 28.9978 49.7285 31.4686 51.6785 36.2741C52.1747 37.5785 52.3845 38.7726 51.8091 40.0984C51.4643 40.667 51.0691 40.9973 50.4501 41.2402C49.5566 41.3868 48.8434 41.3479 48.0142 40.9778C47.4052 40.384 47.2054 39.7605 46.9584 38.9704C45.9725 35.9786 43.6042 34.055 40.8747 32.6728C39.94 32.2386 38.9874 31.8489 38.0295 31.4692C37.7316 31.3486 37.4377 31.2183 37.1448 31.0861C36.1901 30.6738 35.1869 30.384 34.1971 30.069C33.9936 30.0034 33.79 29.9377 33.5803 29.8701C32.5181 29.5302 31.4544 29.2132 30.3768 28.9261C29.7234 28.7446 29.0846 28.5252 28.4435 28.3051C28.1808 28.2186 27.9181 28.1322 27.6554 28.0459C25.8193 27.4314 24.0893 26.7257 22.3959 25.7853C22.1425 25.6459 22.1425 25.6459 21.884 25.5037C19.7323 24.2303 18.3102 22.5507 17.5019 20.1898C16.9299 17.7548 17.3951 15.4413 18.6896 13.335C20.3891 10.9564 23.4498 9.51973 26.2589 8.97816C27.7545 8.73585 29.2534 8.77416 30.764 8.78023Z" fill="#FAFAFA"/>
<path d="M50.2367 0.0583939C50.3503 0.0577763 50.4639 0.0571586 50.5809 0.0565223C50.9615 0.0546728 51.342 0.0540232 51.7225 0.0533826C51.9954 0.0523299 52.2684 0.0512132 52.5413 0.0500375C53.438 0.0465057 54.3346 0.0447619 55.2313 0.0430884C55.5405 0.0424082 55.8498 0.0417166 56.159 0.0410137C57.6129 0.0378132 59.0668 0.035423 60.5207 0.0340234C62.1954 0.0323843 63.8701 0.0279697 65.5448 0.0211721C66.8412 0.0160916 68.1377 0.0136166 69.4341 0.0130615C70.2074 0.0126681 70.9806 0.0111811 71.7539 0.00693647C72.4826 0.00300098 73.2113 0.00232422 73.94 0.00404058C74.206 0.00412323 74.4719 0.00307821 74.7378 0.000755378C77.1438 -0.0190684 79.3356 0.343255 81.1541 2.04189C82.3661 3.34283 82.6047 4.94237 82.5781 6.6629C82.4263 8.95422 81.3764 10.5721 80.1299 12.4283C79.7539 12.9903 79.3872 13.5581 79.0202 14.126C78.7449 14.5516 78.4683 14.9764 78.1913 15.401C77.7168 16.1284 77.2434 16.8565 76.7713 17.5855C76.6986 17.6976 76.626 17.8098 76.5511 17.9254C75.9688 18.826 75.3916 19.7297 74.8145 20.6337C73.9052 22.058 72.9935 23.479 72.0494 24.8805C71.4188 25.8205 70.8174 26.7783 70.2154 27.7368C69.6129 28.6949 69.0008 29.6463 68.3823 30.5941C67.5426 31.8812 66.711 33.1734 65.8835 34.4684C63.6656 37.9372 63.6656 37.9372 62.9005 39.104C62.7266 39.3712 62.5561 39.6407 62.3859 39.9103C61.7306 40.9138 61.051 41.6219 59.8943 42.0134C59.3553 42.11 58.8292 42.1225 58.282 42.1328C58.0659 42.1391 57.8497 42.1454 57.6271 42.1519C56.8805 42.0666 56.5303 41.9365 55.9931 41.4084C55.756 40.3125 56.1511 39.6618 56.7355 38.7432C56.8439 38.5798 56.9523 38.4164 57.0641 38.2481C57.1758 38.0745 57.2876 37.901 57.4028 37.7222C57.769 37.1564 58.14 36.5941 58.513 36.0327C58.577 35.9362 58.641 35.8396 58.7069 35.7402C59.2916 34.8581 59.8781 33.9773 60.4681 33.0988C61.2179 31.9816 61.95 30.8565 62.6555 29.7108C63.1703 28.8765 63.7095 28.0607 64.2562 27.2471C64.7749 26.4743 65.2844 25.696 65.789 24.914C65.8655 24.7955 65.942 24.6769 66.0208 24.5548C66.1798 24.3084 66.3388 24.0619 66.4978 23.8154C66.9287 23.1483 67.3615 22.4825 67.7944 21.8167C67.8851 21.6771 67.9758 21.5376 68.0693 21.3938C69.4116 19.33 70.7573 17.2684 72.103 15.2067C72.7251 14.2535 73.3467 13.3 73.968 12.3463C74.1006 12.1428 74.1006 12.1428 74.2359 11.9352C76.5045 8.98647 76.5045 8.98647 77.3278 5.62675C76.8554 5.1218 76.3599 4.96386 75.6712 4.93385C75.4739 4.93386 75.2767 4.93386 75.0735 4.93387C74.9636 4.93363 74.8536 4.9334 74.7404 4.93315C74.3713 4.93254 74.0022 4.9331 73.6332 4.93363C73.3688 4.9334 73.1045 4.93308 72.8401 4.93268C72.2703 4.93193 71.7005 4.93162 71.1308 4.9316C70.2292 4.93141 69.3277 4.92925 68.4262 4.92663C68.274 4.9262 68.1218 4.92577 67.9651 4.92532C67.6539 4.92444 67.3427 4.92355 67.0316 4.92266C64.9326 4.91676 62.8337 4.9123 60.7347 4.91272C59.3191 4.91298 57.9035 4.91028 56.4879 4.9042C55.7389 4.9011 54.99 4.89953 54.2411 4.90159C53.5361 4.90352 52.8311 4.90154 52.1261 4.89661C51.868 4.8955 51.6098 4.89581 51.3517 4.89767C48.8028 4.91455 48.8028 4.91455 47.7617 3.94686C47.2597 3.36645 47.1773 2.86473 47.2091 2.09767C47.3089 1.41004 47.5847 0.920596 48.0871 0.450593C48.7838 0.0495034 49.4429 0.0611953 50.2367 0.0583939Z" fill="#FAFAFA"/>
<path d="M37.3467 36.0329C37.9335 36.2789 38.3775 36.6285 38.8586 37.0408C38.9969 37.1565 39.1353 37.2721 39.2779 37.3912C41.7809 39.5628 43.6244 42.0818 44.0662 45.4403C44.3207 49.214 43.5104 52.5697 41.0214 55.4881C36.8126 60.2076 30.258 62.5875 24.0755 63.0791C20.9493 63.2487 17.7332 63.272 14.6681 62.5751C14.5553 62.55 14.4424 62.5248 14.3261 62.4989C9.48561 61.3854 4.63706 59.0491 1.82152 54.7879C0.438814 52.3938 0.0493607 50.308 0.0110454 47.5926C0.00744523 47.451 0.00384511 47.3093 0.000135897 47.1634C-0.00627342 45.9539 0.212172 44.8788 1.05048 43.9494C1.17229 43.8097 1.17229 43.8097 1.29656 43.6672C2.01789 43.0147 2.70712 43.0265 3.64381 43.0464C4.4143 43.1198 4.76378 43.4216 5.27974 43.9691C5.65556 44.5184 5.6685 44.773 5.63868 45.4298C5.63297 45.6207 5.62726 45.8116 5.62138 46.0083C5.60916 46.3092 5.60916 46.3092 5.59669 46.6162C5.54956 49.0081 5.77551 50.7271 7.27658 52.6638C7.39438 52.8301 7.51218 52.9964 7.63356 53.1678C10.1548 56.0572 14.6205 57.478 18.3393 57.836C19.5051 57.9142 20.6712 57.9273 21.8391 57.9344C21.9629 57.9358 22.0867 57.9371 22.2143 57.9385C24.6043 57.9583 26.8462 57.6065 29.1362 56.9055C29.2773 56.8624 29.4183 56.8192 29.5637 56.7748C32.9069 55.7133 35.801 53.7521 37.5146 50.6479C38.4069 48.7232 38.7809 46.5182 38.1026 44.4533C37.4477 42.933 36.433 41.7686 35.1628 40.7366C35.1628 40.6257 35.1628 40.5148 35.1628 40.4006C34.9965 40.3452 34.8302 40.2897 34.6588 40.2326C34.0638 39.4336 33.861 38.7854 33.8976 37.7869C34.0486 37.0931 34.4628 36.6515 34.9948 36.2009C35.7105 35.843 36.5715 35.9352 37.3467 36.0329Z" fill="#FBFBFB"/>
<path d="M78.3778 25.1451C78.92 25.5024 79.2 25.7139 79.5117 26.2895C79.7943 27.7753 79.2966 28.7642 78.5038 29.9852C78.4307 30.0988 78.3576 30.2124 78.2823 30.3294C77.8348 31.0245 77.3831 31.7167 76.9295 32.4079C75.3755 34.7853 73.8996 37.2141 72.4067 39.63C71.5633 40.9933 70.7077 42.3487 69.8496 43.7027C69.4299 44.3655 69.0112 45.0289 68.5924 45.6922C68.0847 46.4962 67.5769 47.3001 67.0687 48.1038C66.2858 49.342 65.5041 50.5809 64.7287 51.8238C63.8692 53.2014 63.0019 54.5741 62.1339 55.9465C61.7801 56.5062 61.4266 57.0662 61.0733 57.6263C60.9011 57.899 60.7286 58.1716 60.5558 58.4439C60.202 59.002 59.8513 59.5607 59.5105 60.1268C58.8195 61.2667 58.1051 62.0071 57.0012 62.7431C56.1889 62.8666 55.349 62.9299 54.6034 62.5469C53.8402 61.9206 53.5559 61.3446 53.3789 60.3807C53.5277 59.3394 54.0841 58.5728 54.6493 57.7034C54.7395 57.5645 54.8297 57.4257 54.9226 57.2826C55.3475 56.6297 55.7734 55.9774 56.2011 55.3262C56.8637 54.316 57.5103 53.2988 58.1351 52.2648C58.7912 51.179 59.4675 50.1092 60.16 49.0462C61.3036 47.2894 62.4174 45.5135 63.5254 43.734C64.1582 42.7177 64.7997 41.7082 65.4531 40.705C66.1376 39.6541 66.8021 38.5923 67.4585 37.5237C68.346 36.0796 69.2654 34.6586 70.1962 33.2421C70.8386 32.2615 71.4623 31.2725 72.0677 30.2687C72.7036 29.2194 73.3513 28.1788 74.0206 27.1504C74.1012 27.0235 74.1818 26.8965 74.2648 26.7657C75.2372 25.2897 76.6013 24.496 78.3778 25.1451Z" fill="#FBFBFB"/>
<path d="M64.7727 8.6999C64.9419 8.71116 65.1111 8.72242 65.2855 8.73402C65.5442 8.74312 65.5442 8.74312 65.8082 8.75239C66.233 8.7682 66.6566 8.79026 67.0809 8.81802C66.9697 9.40506 66.7326 9.83695 66.4247 10.3463C66.3274 10.5086 66.2302 10.6709 66.13 10.8381C66.028 11.0065 65.926 11.1749 65.821 11.3483C65.6193 11.6825 65.418 12.017 65.2172 12.3517C65.1277 12.4996 65.0382 12.6475 64.9459 12.7999C64.709 13.1929 64.709 13.1929 64.561 13.6897C63.2306 13.6897 61.9001 13.6897 60.5293 13.6897C60.753 13.1305 60.9251 12.7166 61.236 12.227C61.307 12.1145 61.3779 12.002 61.4509 11.8861C61.5245 11.771 61.598 11.6559 61.6737 11.5373C61.7453 11.4242 61.8169 11.311 61.8906 11.1945C62.0355 10.9654 62.1824 10.7375 62.3312 10.5109C62.5534 10.1642 62.5534 10.1642 62.7201 9.77944C63.212 8.77191 63.6759 8.67094 64.7727 8.6999Z" fill="#F1D370"/>
<path d="M28.0053 0.405862C28.5136 0.6948 29.0217 1.0136 29.2879 1.54598C29.3406 2.33583 29.3319 2.87196 28.8604 3.5412C28.3853 3.93646 27.9667 4.09667 27.355 4.18252C26.6249 4.07632 26.2038 3.7802 25.7428 3.21163C25.4683 2.55585 25.5086 2.04044 25.7428 1.37675C26.2839 0.56511 27.0294 0.158702 28.0053 0.405862Z" fill="#F7F7F7"/>
<path d="M11.8129 24.6122C12.327 24.9685 12.6365 25.258 12.9881 25.7855C13.1171 26.5727 13.0568 27.1625 12.6942 27.8748C12.226 28.408 11.9089 28.6074 11.2039 28.6977C9.9308 28.7154 9.9308 28.7154 9.28187 28.3578C8.72762 27.6963 8.58472 27.2281 8.64141 26.3734C8.74029 25.6743 8.93645 25.2715 9.46036 24.7775C10.1381 24.2692 11.0679 24.2346 11.8129 24.6122Z" fill="#F8F8F8"/>
<path d="M17.1884 28.809C17.7645 29.1478 18.2314 29.5512 18.5323 30.1529C18.6403 30.8242 18.675 31.4204 18.3249 32.0198C17.8253 32.6171 17.4785 32.9477 16.6759 33.0547C15.9682 33.0865 15.4932 33.0814 14.931 32.6203C14.3955 32.0586 14.1785 31.8062 14.1016 31.0244C14.1204 30.2934 14.3643 29.877 14.8365 29.313C15.5624 28.6688 16.2527 28.6268 17.1884 28.809Z" fill="#F8F8F8"/>
<path d="M23.9078 31.6647C24.4559 31.9339 24.7864 32.3283 25.1467 32.8197C25.3752 33.5966 25.3397 34.1694 24.9892 34.8985C24.3591 35.6094 23.7394 35.8105 22.8158 35.9589C22.0249 35.8318 21.5696 35.4576 21.052 34.8565C20.8241 34.173 20.7721 33.5546 20.884 32.8406C21.5833 31.5803 22.5773 31.4958 23.9078 31.6647Z" fill="#F7F7F8"/>
<path d="M8.95614 18.3936C9.59474 18.6654 9.92968 18.9897 10.3001 19.5695C10.4343 20.2473 10.4559 20.9464 10.1347 21.571C9.76041 22.04 9.36579 22.4234 8.78815 22.5933C7.91283 22.6744 7.33322 22.5915 6.60429 22.0894C6.09219 21.4328 5.87263 20.9832 5.90084 20.147C6.0288 19.4144 6.31828 19.0076 6.91205 18.5669C7.58568 18.2464 8.23204 18.2694 8.95614 18.3936Z" fill="#F8F8F8"/>
<path d="M42.7929 0.235749C43.2228 0.458143 43.5202 0.743702 43.7396 1.1824C43.7962 1.79734 43.8121 2.3554 43.579 2.93203C43.2034 3.35949 42.9158 3.57739 42.3418 3.66473C41.7414 3.69809 41.3048 3.68865 40.8236 3.30393C40.3162 2.74449 40.3058 2.24845 40.3101 1.52261C40.3889 0.97057 40.6317 0.745381 41.0349 0.370985C41.5708 0.103025 42.2104 0.160259 42.7929 0.235749Z" fill="#F9F8F9"/>
<path d="M35.6773 0.231295C36.1955 0.66065 36.4935 0.943141 36.5808 1.62923C36.5007 2.28149 36.3315 2.73453 35.8392 3.18061C35.2836 3.51052 34.6978 3.60364 34.0662 3.47895C33.5378 3.15969 33.1719 2.84162 32.9752 2.25149C32.9214 1.53875 32.9881 1.07972 33.3843 0.478492C34.0347 -0.0953573 34.9035 -0.0954034 35.6773 0.231295Z" fill="#F9F9F9"/>
<path d="M15.1299 5.91038C15.6869 6.30674 15.9357 6.5069 16.1798 7.1388C16.3382 8.23027 16.3382 8.23027 15.9652 8.82459C15.1496 9.79581 15.1496 9.79581 14.4284 9.86665C13.1216 9.90025 13.1216 9.90025 12.4735 9.54314C11.8894 8.8459 11.7245 8.2252 11.7471 7.30613C11.8865 6.58686 12.3896 6.15529 12.967 5.73189C13.7494 5.50176 14.41 5.53446 15.1299 5.91038Z" fill="#F8F8F8"/>
<path d="M10.4686 11.5061C11.1368 11.8883 11.5679 12.2842 11.8126 13.018C11.875 13.8614 11.8356 14.3615 11.3086 15.0339C10.926 15.4629 10.6462 15.6738 10.0762 15.7767C9.34712 15.8162 8.79076 15.7965 8.20078 15.3384C7.65962 14.7296 7.48393 14.3322 7.38184 13.5325C7.47722 12.7536 7.84606 12.2515 8.42586 11.7345C9.07162 11.3281 9.73489 11.3643 10.4686 11.5061Z" fill="#F8F8F8"/>
<path d="M29.7341 33.6069C30.675 33.6219 31.109 33.9007 31.8025 34.5204C32.1126 35.1406 32.0283 35.8578 31.9705 36.5363C31.7408 37.136 31.546 37.3226 31.015 37.6807C30.3481 37.9198 29.8142 38.0056 29.1146 37.8802C28.5479 37.5968 28.2134 37.378 27.8757 36.8408C27.7262 36.1679 27.6455 35.5396 27.7707 34.8564C28.1697 34.3629 28.1697 34.3629 28.6107 34.0164C29.0221 33.6049 29.1657 33.6217 29.7341 33.6069Z" fill="#F8F8F8"/>
<path d="M21.2201 2.26681C21.8792 2.62174 22.3357 2.977 22.732 3.61072C22.8775 4.41708 22.8533 5.08981 22.4275 5.79458C21.6655 6.49127 21.1672 6.54737 20.1682 6.53281C19.4538 6.42989 19.1785 6.15524 18.7002 5.62659C18.3677 4.96159 18.4382 4.16581 18.5322 3.44273C19.2615 2.45007 20.0042 2.14104 21.2201 2.26681Z" fill="#F8F8F8"/>
<path d="M69.265 8.81817C69.7388 8.76896 69.7388 8.76896 70.2939 8.78668C70.57 8.7935 70.57 8.7935 70.8517 8.80046C70.9933 8.8063 71.135 8.81215 71.2809 8.81817C71.0565 9.42128 70.7869 9.94876 70.4462 10.4941C70.3502 10.6483 70.2543 10.8025 70.1555 10.9613C70.0556 11.1203 69.9558 11.2792 69.853 11.443C69.7032 11.6834 69.7032 11.6834 69.5504 11.9286C69.1814 12.5201 68.8118 13.1097 68.4251 13.6899C67.9513 13.7391 67.9513 13.7391 67.3961 13.7214C67.2121 13.7168 67.028 13.7123 66.8383 13.7076C66.6259 13.6988 66.6259 13.6988 66.4092 13.6899C66.6635 13.1648 66.9469 12.6636 67.2439 12.1615C67.3398 11.9992 67.4357 11.8369 67.5346 11.6697C67.6344 11.5014 67.7342 11.333 67.8371 11.1595C67.9369 10.9905 68.0367 10.8215 68.1396 10.6473C68.8837 9.39019 68.8837 9.39019 69.265 8.81817Z" fill="#ECCD6B"/>
</svg>
